<svg width="90" height="89" viewBox="0 0 90 89" fill="none" xmlns="http://www.w3.org/2000/svg">
<circle cx="45" cy="44.5" r="44.5" fill="#C22921"/>
<path fill-rule="evenodd" clip-rule="evenodd" d="M45.0005 27.8691C41.9405 27.8691 39.457 30.3526 39.457 33.4126C39.457 36.4726 41.9405 38.956 45.0005 38.956C48.0605 38.956 50.5439 36.4726 50.5439 33.4126C50.5439 30.3526 48.0605 27.8691 45.0005 27.8691ZM45.0005 30.0865C46.8365 30.0865 48.3265 31.5766 48.3265 33.4126C48.3265 35.2486 46.8365 36.7387 45.0005 36.7387C43.1645 36.7387 41.6744 35.2486 41.6744 33.4126C41.6744 31.5766 43.1645 30.0865 45.0005 30.0865Z" fill="white"/>
<path fill-rule="evenodd" clip-rule="evenodd" d="M32.4573 41.4998L21.591 45.8469C20.3282 46.3514 19.5 47.5743 19.5 48.9346V66.6736C19.5 67.7768 20.0477 68.809 20.9613 69.4276C21.8748 70.0463 23.0367 70.1716 24.0611 69.7614L33.913 65.8211L43.7648 69.7614C44.5575 70.0795 45.4422 70.0795 46.2349 69.7614L56.0868 65.8211L65.9386 69.7614C66.963 70.1716 68.1249 70.0463 69.0385 69.4276C69.952 68.809 70.4997 67.7768 70.4997 66.6736V48.9346C70.4997 47.5743 69.6715 46.3514 68.4087 45.8469L57.5425 41.4998C58.6789 38.86 59.4128 36.0927 59.4128 33.413C59.4128 25.4581 52.9547 19 44.9999 19C37.045 19 30.5869 25.4581 30.5869 33.413C30.5869 36.0927 31.3208 38.86 32.4573 41.4998ZM35.0217 46.3226V63.8764L44.5885 67.7025C44.8524 67.809 45.1473 67.809 45.4112 67.7025L54.9781 63.8764V46.3226C51.5722 51.7174 47.3281 55.7453 47.2882 55.783C46.0054 56.9992 43.9943 56.9992 42.7115 55.783C42.6716 55.7453 38.4275 51.7174 35.0217 46.3226ZM32.8043 43.7493L22.4147 47.9057C21.9934 48.0732 21.7174 48.4812 21.7174 48.9346V66.6736C21.7174 67.0417 21.9003 67.3854 22.2041 67.5916C22.509 67.7979 22.8959 67.84 23.2374 67.7025L32.8043 63.8764V43.7493ZM57.1954 43.7493V63.8764L66.7623 67.7025C67.1038 67.84 67.4907 67.7979 67.7956 67.5916C68.0994 67.3854 68.2823 67.0417 68.2823 66.6736V48.9346C68.2823 48.4812 68.0063 48.0732 67.585 47.9057L57.1954 43.7493ZM44.9999 21.2174C51.7307 21.2174 57.1954 26.6821 57.1954 33.413C57.1954 37.3876 55.3617 41.5541 53.1221 45.1085C49.8515 50.2994 45.7626 54.1732 45.7626 54.1732V54.1743C45.3347 54.579 44.665 54.579 44.2371 54.1743V54.1732C44.2371 54.1732 40.1482 50.2994 36.8776 45.1085C34.6381 41.5541 32.8043 37.3876 32.8043 33.413C32.8043 26.6821 38.269 21.2174 44.9999 21.2174Z" fill="white"/>
</svg>
