<svg width="90" height="89" viewBox="0 0 90 89" fill="none" xmlns="http://www.w3.org/2000/svg">
<circle cx="45" cy="44.5" r="44.5" fill="#C22921"/>
<path d="M44.5271 69.8224C44.5912 69.8224 44.5912 69.8224 44.6552 69.8873C44.7193 69.8873 44.7193 69.9522 44.7834 69.9522C44.9115 70.0171 45.1037 70.082 45.2959 70.082C45.4881 70.082 45.6163 70.0171 45.8085 69.9522C45.8726 69.9522 45.8726 69.9522 45.9366 69.8873C46.0007 69.8873 46.0007 69.8873 46.0648 69.8224L67.0152 57.5527C67.4637 57.293 67.72 56.8386 67.72 56.3192V31.7799C67.72 31.715 67.72 31.715 67.72 31.6501V31.5852C67.6559 31.2606 67.4637 30.936 67.2075 30.6763L67.1434 30.6114L67.0793 30.5465L45.9366 18.2768C45.4881 18.0171 44.9756 18.0171 44.5271 18.2768L23.5766 30.5465L23.5126 30.6114C23.4485 30.6114 23.4485 30.6763 23.3844 30.7412C23.2563 30.8061 23.1922 30.936 23.1281 31.0658C23.0641 31.1956 23 31.3255 23 31.5202C23 31.5852 23 31.5852 23 31.6501C23 31.715 23 31.715 23 31.7799V56.3192C23 56.8386 23.2563 57.293 23.7048 57.5527L44.5271 69.8224ZM64.8369 55.4753L46.6414 66.122V44.8935L64.8369 34.2468V55.4753ZM45.2319 21.1332L63.4274 31.7799L45.2319 42.4266L27.0363 31.7799L45.2319 21.1332ZM25.6268 34.2468L43.8224 44.8935V66.122L25.6268 55.4753V34.2468Z" fill="white"/>
</svg>
