<svg width="90" height="89" viewBox="0 0 90 89" fill="none" xmlns="http://www.w3.org/2000/svg">
<circle cx="45" cy="44.5" r="44.5" fill="#C22921"/>
<path d="M36.6454 57.1669C36.587 57.1438 36.5196 57.1159 36.4521 57.0871C36.4694 57.0271 36.4875 56.967 36.5031 56.916C36.7243 56.1849 37.0574 55.0821 36.2144 54.3288C36.0056 54.1413 35.6421 53.9184 35.1001 53.9184C34.5721 53.9184 34.0622 54.138 33.6116 54.3304C33.5614 54.3518 33.5038 54.3773 33.4463 54.402C33.4109 54.3378 33.3763 54.2745 33.3467 54.2186C32.9956 53.5689 32.4544 52.5894 31.3434 52.6239C30.2381 52.6873 29.8145 53.7375 29.5341 54.4324C29.5102 54.49 29.4831 54.5574 29.4551 54.6257C29.3943 54.6076 29.3351 54.5895 29.2841 54.5738C28.8869 54.4538 28.4362 54.3173 27.9913 54.3173C27.3227 54.3173 26.918 54.6133 26.696 54.8617C25.9427 55.7046 26.3975 56.7639 26.6976 57.4654C26.719 57.5156 26.7437 57.5731 26.7684 57.6315C26.7042 57.6669 26.6401 57.7014 26.5841 57.7319C25.9246 58.088 24.9278 58.6266 24.9912 59.7319C25.0528 60.8389 26.1022 61.2624 26.7971 61.5437C26.8555 61.5667 26.9238 61.5947 26.9921 61.6235C26.974 61.6843 26.9559 61.7444 26.9402 61.797C26.7198 62.5265 26.3868 63.6293 27.2297 64.3826C27.4386 64.5701 27.8029 64.793 28.3449 64.793C28.8737 64.793 29.3836 64.5734 29.8343 64.381C29.8844 64.3596 29.942 64.3341 29.9996 64.3102C30.0349 64.3744 30.0695 64.4377 30.0999 64.4936C30.4437 65.1293 30.9626 66.0899 32.0153 66.0899C32.0391 66.0899 32.0802 66.0883 32.1033 66.0874C33.2086 66.0241 33.6313 64.9747 33.9117 64.2806C33.9356 64.2222 33.9627 64.154 33.9915 64.0857C34.0524 64.1038 34.1124 64.1219 34.1642 64.1375C34.5606 64.2576 35.0105 64.3933 35.4554 64.3933C36.1223 64.3933 36.527 64.0981 36.7531 63.8464C37.5031 63.0026 37.0492 61.9442 36.7482 61.2443C36.7268 61.1942 36.7021 61.1374 36.6775 61.079C36.7416 61.0428 36.8066 61.0083 36.8617 60.9787C37.5204 60.6218 38.5155 60.0839 38.4538 58.9778C38.3905 57.8708 37.3403 57.4465 36.6454 57.1669ZM34.1724 60.2122C34.0047 60.69 34.0844 61.1588 34.2341 61.6004C33.7563 61.496 33.2505 61.5026 32.8484 61.6942C32.3977 61.9121 32.1189 62.2912 31.91 62.7016C31.6559 62.3167 31.3376 61.9713 30.8647 61.806C30.6887 61.7452 30.4996 61.7139 30.3022 61.7139C30.0177 61.7139 29.743 61.7772 29.4765 61.8685C29.576 61.4146 29.6024 60.9409 29.3836 60.4861C29.1665 60.0329 28.7874 59.7541 28.3762 59.5444C28.761 59.2903 29.1064 58.972 29.2717 58.4992C29.4387 58.0213 29.3589 57.5534 29.2092 57.1118C29.6862 57.2154 30.1928 57.2105 30.5942 57.0188C31.0457 56.8017 31.3245 56.4226 31.5333 56.0122C31.7866 56.3963 32.1049 56.7409 32.5794 56.9078C33.0079 57.0567 33.5137 56.9983 33.9652 56.8453C33.8665 57.2985 33.8402 57.7722 34.0581 58.2286C34.2761 58.6809 34.6552 58.9597 35.0664 59.1686C34.6823 59.4211 34.3369 59.7402 34.1724 60.2122Z" fill="white"/>
<path d="M67.2001 23.8311C66.9929 23.5054 66.645 23.2957 66.2593 23.2644C65.8736 23.2307 65.4961 23.3845 65.2403 23.6724L59.5584 30.0303L55.4644 26.3723L60.1192 21.1624C60.4334 20.8121 60.5189 20.3137 60.3429 19.877C60.1661 19.4411 59.7574 19.1434 59.2886 19.1097C56.0673 18.8778 53.0186 20.113 50.8861 22.5004C48.3704 25.3163 47.6196 29.2795 48.8754 32.7977L34.4184 48.9776C30.5465 47.9702 26.4263 49.1947 23.7272 52.2137C21.8192 54.3495 20.8562 57.1004 21.0174 59.9608C21.1786 62.8211 22.4426 65.447 24.5784 67.3541C26.5604 69.1256 29.072 70.082 31.7094 70.082C31.9142 70.082 32.1198 70.0763 32.3254 70.0648C35.1849 69.9044 37.8108 68.6395 39.7188 66.5038C42.4179 63.4839 43.172 59.2527 41.7361 55.5173L56.1931 39.3383C56.9694 39.5208 57.7548 39.6096 58.5361 39.6096C61.4153 39.6096 64.223 38.3991 66.2033 36.1835C69.2503 32.7706 69.6607 27.6914 67.2001 23.8311ZM64.3628 34.5387C62.3109 36.8332 59.0904 37.7099 56.1594 36.7699C56.1289 36.76 56.0977 36.7576 56.0673 36.751C56.022 36.7403 55.9776 36.728 55.9324 36.7222C55.8946 36.7181 55.8584 36.7189 55.8214 36.7181C55.7778 36.7173 55.7358 36.714 55.6923 36.7173C55.6561 36.7197 55.6207 36.728 55.5853 36.7337C55.5418 36.7403 55.499 36.7469 55.4562 36.7584C55.4242 36.7674 55.3937 36.7806 55.3625 36.7921C55.3189 36.8077 55.2761 36.8225 55.2342 36.8439C55.2021 36.8595 55.1733 36.8793 55.1437 36.8982C55.1067 36.9212 55.0689 36.9418 55.0335 36.9689C54.9957 36.9977 54.962 37.0331 54.9274 37.066C54.9069 37.0857 54.883 37.1021 54.8641 37.1235L54.8476 37.1408L54.8468 37.1416L39.3734 54.4589C39.0428 54.829 38.9663 55.3619 39.1793 55.8109C40.6111 58.8217 40.1012 62.3729 37.8791 64.8598C36.4094 66.5038 34.388 67.4783 32.1864 67.6017C29.9824 67.7209 27.8663 66.9849 26.2215 65.5152C24.5767 64.0464 23.6038 62.0242 23.4805 59.8226C23.3571 57.6202 24.0981 55.5025 25.5677 53.8577C27.7882 51.3733 31.2604 50.4686 34.4143 51.5509C34.8814 51.7129 35.4036 51.5764 35.7351 51.2063L51.2242 33.8718C51.2439 33.8496 51.2587 33.8232 51.276 33.8002C51.3048 33.7624 51.3352 33.7262 51.3598 33.6851C51.3821 33.6489 51.3977 33.6102 51.4158 33.5724C51.4322 33.5387 51.4495 33.5058 51.4626 33.4704C51.4775 33.4301 51.4857 33.3882 51.4964 33.3462C51.5054 33.3109 51.5153 33.2755 51.5219 33.2385C51.5276 33.199 51.5284 33.1596 51.5309 33.1201C51.5334 33.0798 51.5375 33.0395 51.5358 32.9992C51.5342 32.9597 51.5268 32.9211 51.521 32.8824C51.5153 32.8421 51.512 32.8026 51.5029 32.7623C51.4914 32.7155 51.4742 32.6711 51.4577 32.6258C51.447 32.5979 51.4413 32.5699 51.4298 32.5419C50.169 29.7343 50.6781 26.4364 52.7275 24.1419C53.6642 23.0942 54.837 22.3384 56.1314 21.9215L52.804 25.6461C52.3492 26.1544 52.3936 26.934 52.9018 27.388L58.8355 32.69C59.0797 32.9087 59.4021 33.0198 59.7261 33.0017C60.0526 32.9836 60.3594 32.8355 60.5765 32.5921L65.8678 26.6708C66.8308 29.3272 66.2955 32.375 64.3628 34.5387Z" fill="white"/>
</svg>
